<?xml version="1.0" encoding="utf-8"?>
<!-- Generator: Adobe Illustrator 22.1.0, SVG Export Plug-In . SVG Version: 6.00 Build 0)  -->
<svg version="1.1" id="Layer_1" xmlns="http://www.w3.org/2000/svg" xmlns:xlink="http://www.w3.org/1999/xlink" x="0px" y="0px"
	 viewBox="0 0 188.5 61.8" style="enable-background:new 0 0 188.5 61.8;" xml:space="preserve">
<style type="text/css">
	.st0{fill:#186B6D;}
	.st1{clip-path:url(#SVGID_2_);}
	.st2{fill:#FFFFFF;}
	.st3{clip-path:url(#SVGID_4_);}
	.st4{clip-path:url(#SVGID_6_);}
	.st5{clip-path:url(#SVGID_8_);}
	.st6{clip-path:url(#SVGID_10_);}
	.st7{fill:#939392;}
	.st8{clip-path:url(#SVGID_12_);}
	.st9{clip-path:url(#SVGID_14_);}
	.st10{fill:#EC2327;}
	.st11{clip-path:url(#SVGID_16_);}
	.st12{fill:#F79F1E;}
	.st13{clip-path:url(#SVGID_18_);}
	.st14{fill:#1BAE5C;}
	.st15{clip-path:url(#SVGID_20_);}
	.st16{fill:#8250A0;}
	.st17{clip-path:url(#SVGID_22_);}
	.st18{fill:#2C7FC2;}
	.st19{fill:#072F54;}
	.st20{fill:#FBC108;}
</style>
<g id="surface1_2_">
	<g>
		<defs>
			<rect id="SVGID_1_" x="0.5" y="36.4" width="25" height="24.7"/>
		</defs>
		<clipPath id="SVGID_2_">
			<use xlink:href="#SVGID_1_"  style="overflow:visible;"/>
		</clipPath>
		<g class="st1">
			<path class="st2" d="M11.9,36.4c-2.6,0.2-5.1,1.3-7,3C1.8,42,0.2,46.3,0.8,50.3c0.6,5.1,4.7,9.5,9.7,10.5
				c3.6,0.8,7.6-0.2,10.4-2.6c2.7-2.3,4.4-5.7,4.4-9.3c0.1-4.1-2-8.1-5.4-10.4C17.6,36.9,14.7,36.2,11.9,36.4"/>
		</g>
	</g>
	<g>
		<defs>
			<rect id="SVGID_3_" x="40.9" y="36.4" width="25" height="24.7"/>
		</defs>
		<clipPath id="SVGID_4_">
			<use xlink:href="#SVGID_3_"  style="overflow:visible;"/>
		</clipPath>
		<g class="st3">
			<path class="st2" d="M52.3,36.4c-5.1,0.4-9.6,4.4-10.7,9.4c-1,4,0.2,8.5,3.1,11.4c2.7,2.8,6.7,4.2,10.6,3.7
				c3.3-0.4,6.3-2.2,8.2-4.9c1.6-2.2,2.5-5,2.4-7.7c0-3.7-2-7.4-5-9.6C58.5,36.9,55.3,36.1,52.3,36.4"/>
		</g>
	</g>
	<g>
		<defs>
			<rect id="SVGID_5_" x="81.7" y="36.4" width="25" height="24.7"/>
		</defs>
		<clipPath id="SVGID_6_">
			<use xlink:href="#SVGID_5_"  style="overflow:visible;"/>
		</clipPath>
		<g class="st4">
			<path class="st2" d="M93,36.4c-2.7,0.3-5.3,1.4-7.2,3.3c-2.8,2.6-4.3,6.7-3.7,10.5c0.4,3.5,2.5,6.8,5.5,8.7
				c2.5,1.6,5.6,2.3,8.5,1.9c3.3-0.4,6.4-2.3,8.3-5.1c2-2.7,2.7-6.2,2-9.5c-0.6-3.4-2.9-6.5-5.9-8.3C98.3,36.7,95.6,36.2,93,36.4"/>
		</g>
	</g>
	<g>
		<defs>
			<rect id="SVGID_7_" x="122.5" y="36.4" width="25" height="24.7"/>
		</defs>
		<clipPath id="SVGID_8_">
			<use xlink:href="#SVGID_7_"  style="overflow:visible;"/>
		</clipPath>
		<g class="st5">
			<path class="st2" d="M133.7,36.4c-4.6,0.4-8.8,3.6-10.3,8c-1.2,3.2-1,6.9,0.6,10c1.7,3.5,5.3,6,9.1,6.5c3.7,0.6,7.7-0.7,10.4-3.3
				c2.1-2,3.5-4.9,3.7-7.9c0.3-3.6-1-7.2-3.5-9.7C141.1,37.4,137.4,36.1,133.7,36.4"/>
		</g>
	</g>
	<g>
		<defs>
			<rect id="SVGID_9_" x="162.9" y="36.4" width="25" height="24.7"/>
		</defs>
		<clipPath id="SVGID_10_">
			<use xlink:href="#SVGID_9_"  style="overflow:visible;"/>
		</clipPath>
		<g class="st6">
			<path class="st2" d="M174.5,36.4c-2.2,0.2-4.4,1-6.2,2.4c-3.1,2.3-5,6-4.9,9.8c-0.1,2.6,0.8,5.2,2.3,7.4c2,2.7,5.1,4.6,8.5,5
				c3.8,0.5,7.7-0.9,10.3-3.7c2.6-2.7,3.9-6.6,3.3-10.3c-0.5-3.4-2.4-6.5-5.3-8.4C180.2,36.9,177.3,36.2,174.5,36.4"/>
		</g>
	</g>
	<path class="st7" d="M72.1,9.8c-1.7,0.4-2.7,2.1-2.9,3.8c-0.3,2-0.1,4.3,1.2,5.8c1.4,1.6,4.1,1.6,5.5,0c1.5-1.8,1.6-4.4,1-6.6
		C76.3,10.9,74.2,9.2,72.1,9.8z M78.6,0.2c0.8-0.3,1.9-0.2,2.5,0.5c0.5,0.6,0.5,1.4,0.5,2.1c0,6.4,0,12.8,0,19.2
		c0.1,1.5-1.7,2.6-3,1.8c-0.9-0.5-1.1-1.6-1.1-2.6c-1.2,1.4-2.9,2.6-4.9,2.8c-2,0.2-4.2-0.5-5.6-2c-1.9-2-2.5-4.8-2.4-7.5
		c0.1-2.3,0.7-4.7,2.5-6.3c1.8-1.7,4.5-2.1,6.8-1.5C75.3,7,76.4,8,77.4,8.9c0-2.2,0-4.3,0-6.5C77.4,1.6,77.7,0.5,78.6,0.2"/>
	<path class="st7" d="M7.1,16.6c-0.9,0.2-2,0.8-2.2,1.8c-0.3,1.3,0.8,2.5,2,2.7c1.5,0.2,3.1-0.3,4.1-1.4c1-1.2,0.9-2.8,1-4.3
		C10.5,15.9,8.8,16.2,7.1,16.6z M3.5,7.6c2.2-1.3,4.9-1.4,7.4-1.1c1.7,0.2,3.5,0.7,4.5,2.1c1.2,1.9,0.9,4.3,1,6.4
		c0.1,1.7-0.2,3.4,0.3,5.1c0.2,0.9,0.7,1.8,0.4,2.7c-0.5,0.9-1.5,1.5-2.5,1.1c-1-0.4-1.6-1.4-2.2-2.3c-1.5,1.1-3.2,2.1-5.1,2.3
		c-1.9,0.3-4.1-0.1-5.5-1.5c-1.3-1.3-1.7-3.4-1-5.2c0.6-1.5,2.1-2.5,3.6-2.8c2.5-0.6,5.1-1,7.5-1.7c-0.1-1-0.2-2.2-1-2.8
		C9.8,9.3,8.3,9.3,7,9.7C5.9,10,5.2,11.1,4.5,12c-0.6,1.4-3.1,0.8-3.2-0.6C1.1,9.8,2.2,8.4,3.5,7.6"/>
	<path class="st7" d="M29.1,9.9c-1.8,0.5-2.7,2.3-2.9,4c-0.2,1.8-0.1,3.8,1.2,5.2c1.1,1.3,3.3,1.6,4.7,0.7c1.4-0.8,2.1-2.4,2.2-4
		c0.1-1.6-0.1-3.4-1.2-4.8C32.3,9.9,30.6,9.4,29.1,9.9z M24.2,8.2C26.1,6.4,29,6,31.4,6.8c1.3,0.4,2.4,1.4,3.2,2.5
		c0-0.7-0.1-1.5,0.5-2.1c0.6-0.8,1.8-0.8,2.6-0.5c1,0.6,0.9,1.8,1,2.8c0,4.2,0,8.4,0,12.5c0,2.2-0.3,4.7-1.9,6.4c-1.6,1.6-4,2-6.1,2
		c-2.3,0.1-4.7-0.3-6.6-1.5c-1-0.7-1.9-1.8-1.8-3c0.1-1.1,1.4-1.8,2.4-1.5c1,0.3,1.5,1.3,2.2,1.9c1,1.1,2.7,1.2,4.1,1
		c1.1-0.1,2.3-0.6,2.8-1.7c0.6-1.5,0.5-3.1,0.5-4.7c-1.1,1.5-2.8,2.6-4.7,2.7c-1.9,0.2-4-0.4-5.4-1.8c-1.8-1.8-2.4-4.3-2.5-6.7
		C21.7,12.6,22.4,10,24.2,8.2"/>
	<path class="st7" d="M50.3,9.9c-1.6,0.5-2.5,2.2-2.8,3.8c-0.3,1.9-0.2,4.1,1.1,5.7c1.3,1.7,4.2,1.9,5.7,0.3
		c1.2-1.1,1.5-2.8,1.5-4.4c0-1.5-0.3-3.2-1.3-4.4C53.5,9.8,51.8,9.4,50.3,9.9z M50,6.5c2.3-0.3,4.8,0,6.8,1.4
		c2.2,1.5,3.4,4.2,3.5,6.9c0.1,2.4-0.5,4.9-2.2,6.7c-1.6,1.8-4.1,2.6-6.5,2.6c-2.2,0-4.5-0.7-6.1-2.3c-1.6-1.6-2.4-3.9-2.5-6.1
		c-0.1-2.4,0.6-5,2.3-6.8C46.6,7.5,48.3,6.8,50,6.5"/>
	<path class="st7" d="M92.6,16.6c-0.9,0.2-1.8,0.8-2,1.7c-0.3,1.2,0.7,2.5,1.9,2.7c1.6,0.3,3.3-0.3,4.4-1.5c0.9-1.2,0.8-2.7,0.8-4.1
		C96,15.9,94.3,16.2,92.6,16.6z M89.2,7.6c2.4-1.4,5.3-1.4,8-1.1c1.9,0.2,3.9,1.2,4.4,3.2c0.9,3.2,0.1,6.5,0.6,9.8
		c0.2,1,0.7,1.9,0.6,3c-0.2,1.3-1.9,2-3,1.3c-0.7-0.5-1.2-1.3-1.7-2c-1.3,0.8-2.5,1.7-4,2.1c-2.1,0.5-4.6,0.4-6.3-1.1
		c-1.8-1.5-2.1-4.6-0.6-6.4c0.8-1,2-1.6,3.2-1.8c2.4-0.5,4.7-0.9,7-1.6c0.6-0.1,0.3-0.7,0.2-1.1c-0.2-0.8-0.5-1.8-1.4-2
		c-1.3-0.4-2.7-0.3-4,0.2c-1.2,0.5-1.6,1.9-2.5,2.8c-1,0.5-2.5,0-2.7-1.2C86.8,9.8,87.8,8.4,89.2,7.6"/>
	<path class="st7" d="M125.9,6.6c2.8-0.5,5.9,0,8,2c0.9,0.8,1.6,1.9,1.5,3.2c-0.1,1.5-2.3,2.3-3.2,1.1c-0.8-1-1.4-2.1-2.6-2.7
		c-1.4-0.6-3.1-0.4-4.2,0.6c-1.2,1.1-1.6,2.8-1.7,4.3c0,1.5,0.3,3.2,1.3,4.4c1.4,1.6,4.2,1.8,5.7,0.3c0.7-0.7,1.1-1.6,1.8-2.4
		c0.7-0.8,2.2-0.7,2.8,0.2c0.7,0.9,0.4,2.1-0.1,3c-1.2,2.1-3.7,3.2-6,3.4c-2.3,0.2-4.8-0.1-6.6-1.5c-1.6-1.2-2.7-3-3-4.9
		c-0.4-2.5-0.2-5.2,1.1-7.4C121.7,8.2,123.8,6.9,125.9,6.6"/>
	<path class="st7" d="M147.7,9.9c-1.5,0.5-2.4,2-2.6,3.4c-0.4,2-0.3,4.3,1,6c1.3,1.8,4.3,1.9,5.8,0.3c1.1-1.1,1.4-2.8,1.4-4.3
		c0-1.6-0.3-3.3-1.5-4.5C150.7,9.7,149,9.4,147.7,9.9z M147.4,6.5c2.1-0.3,4.4-0.1,6.3,1c2,1.1,3.4,3.3,3.8,5.5
		c0.4,2.6,0.1,5.5-1.4,7.7c-1.4,2-3.9,3.1-6.3,3.2c-2.1,0.1-4.3-0.3-6-1.6c-1.7-1.2-2.8-3.1-3.1-5.2c-0.5-2.7-0.1-5.7,1.6-7.8
		C143.5,7.8,145.4,6.8,147.4,6.5"/>
	<g>
		<defs>
			<rect id="SVGID_11_" x="162.9" y="6.1" width="25" height="18.2"/>
		</defs>
		<clipPath id="SVGID_12_">
			<use xlink:href="#SVGID_11_"  style="overflow:visible;"/>
		</clipPath>
		<g class="st8">
			<path class="st7" d="M163.4,7.2c0.8-1.1,2.7-1,3.4,0.2c0.3,0.5,0.3,1,0.4,1.5c1.4-1.7,3.5-2.7,5.7-2.4c1.7,0.1,3.3,1,4.2,2.5
				c1-1.1,2.3-2.1,3.8-2.4c2-0.3,4.4,0,5.7,1.7c0.9,1.1,1,2.6,1.1,4c0,2.9,0,5.8,0,8.6c0,0.8,0,1.7-0.5,2.3c-0.8,1.1-2.7,1.1-3.5,0
				c-0.4-0.6-0.5-1.3-0.5-2c0-2.6,0-5.2,0-7.8c-0.1-1.1,0-2.4-1-3.1c-1.2-0.7-2.8-0.3-3.6,0.8c-0.8,0.9-0.8,2.1-0.9,3.2
				c-0.1,2.5,0,5.1-0.1,7.6c0,0.8-0.4,1.5-1,2c-1.2,0.8-3.2,0.1-3.3-1.4c-0.3-3.4,0-6.8-0.2-10.2c-0.1-0.8-0.4-1.9-1.3-2.1
				c-1.4-0.4-3.2,0.1-3.7,1.6c-0.8,2.4-0.5,4.9-0.6,7.4c-0.1,1.3,0.2,2.6-0.2,3.8c-0.5,1.4-2.6,1.7-3.6,0.6
				c-0.5-0.5-0.7-1.3-0.7-1.9c0-4.1,0-8.2,0-12.3C163,8.5,163,7.8,163.4,7.2"/>
		</g>
	</g>
	<path class="st7" d="M110.8,19.3c1.7-0.6,3.6,1.2,3,3c-0.3,1.9-2.9,2.3-4.2,1C108.5,22.1,109.1,19.7,110.8,19.3"/>
	<g>
		<defs>
			<rect id="SVGID_13_" x="0.5" y="36.4" width="25" height="24.7"/>
		</defs>
		<clipPath id="SVGID_14_">
			<use xlink:href="#SVGID_13_"  style="overflow:visible;"/>
		</clipPath>
		<g class="st9">
			<path class="st10" d="M11.9,36.4c2.8-0.2,5.7,0.5,8,2.1c3.4,2.3,5.5,6.3,5.4,10.4c0,3.6-1.7,7-4.4,9.3c-2.8,2.4-6.8,3.3-10.4,2.6
				c-5-1-9.1-5.4-9.7-10.5c-0.5-4,1-8.2,4.1-10.9C6.8,37.7,9.3,36.6,11.9,36.4"/>
		</g>
	</g>
	<g>
		<defs>
			<rect id="SVGID_15_" x="40.9" y="36.4" width="25" height="24.7"/>
		</defs>
		<clipPath id="SVGID_16_">
			<use xlink:href="#SVGID_15_"  style="overflow:visible;"/>
		</clipPath>
		<g class="st11">
			<path class="st12" d="M52.3,36.4c3-0.3,6.2,0.5,8.6,2.3c3,2.2,4.9,5.8,5,9.6c0.1,2.7-0.8,5.5-2.4,7.7c-1.9,2.7-5,4.5-8.2,4.9
				c-3.8,0.6-7.9-0.8-10.6-3.7c-2.9-2.9-4.1-7.4-3.1-11.4C42.7,40.8,47.2,36.9,52.3,36.4"/>
		</g>
	</g>
	<g>
		<defs>
			<rect id="SVGID_17_" x="81.7" y="36.4" width="25" height="24.7"/>
		</defs>
		<clipPath id="SVGID_18_">
			<use xlink:href="#SVGID_17_"  style="overflow:visible;"/>
		</clipPath>
		<g class="st13">
			<path class="st14" d="M93,36.4c2.6-0.2,5.2,0.3,7.5,1.6c3,1.8,5.3,4.8,5.9,8.3c0.7,3.3-0.1,6.8-2,9.5c-1.9,2.7-5,4.6-8.3,5.1
				c-2.9,0.4-6-0.2-8.5-1.9c-3-1.9-5.1-5.2-5.5-8.7c-0.5-3.8,0.9-7.9,3.7-10.5C87.7,37.9,90.3,36.7,93,36.4"/>
		</g>
	</g>
	<g>
		<defs>
			<rect id="SVGID_19_" x="122.5" y="36.4" width="25" height="24.7"/>
		</defs>
		<clipPath id="SVGID_20_">
			<use xlink:href="#SVGID_19_"  style="overflow:visible;"/>
		</clipPath>
		<g class="st15">
			<path class="st16" d="M133.7,36.4c3.6-0.4,7.4,0.9,9.9,3.6c2.5,2.5,3.9,6.2,3.5,9.7c-0.2,3-1.6,5.8-3.7,7.9
				c-2.7,2.6-6.7,3.9-10.4,3.3c-3.8-0.5-7.4-3-9.1-6.5c-1.6-3-1.8-6.8-0.6-10C124.9,40,129.1,36.8,133.7,36.4"/>
		</g>
	</g>
	<g>
		<defs>
			<rect id="SVGID_21_" x="162.9" y="36.4" width="25" height="24.7"/>
		</defs>
		<clipPath id="SVGID_22_">
			<use xlink:href="#SVGID_21_"  style="overflow:visible;"/>
		</clipPath>
		<g class="st17">
			<path class="st18" d="M174.5,36.4c2.8-0.3,5.7,0.5,8.1,2.1c2.8,1.9,4.8,5,5.3,8.4c0.6,3.7-0.7,7.7-3.3,10.3
				c-2.6,2.7-6.5,4.1-10.3,3.7c-3.4-0.4-6.5-2.2-8.5-5c-1.5-2.1-2.4-4.7-2.3-7.4c0-3.8,1.9-7.6,4.9-9.8
				C170,37.5,172.2,36.6,174.5,36.4"/>
		</g>
	</g>
</g>
</svg>
