<?xml version="1.0" encoding="utf-8"?>
<!-- Generator: Adobe Illustrator 22.1.0, SVG Export Plug-In . SVG Version: 6.00 Build 0)  -->
<svg version="1.1" id="Layer_1" xmlns="http://www.w3.org/2000/svg" xmlns:xlink="http://www.w3.org/1999/xlink" x="0px" y="0px"
	 viewBox="0 0 188.5 61.8" style="enable-background:new 0 0 188.5 61.8;" xml:space="preserve">
<style type="text/css">
	.st0{fill:#186B6D;}
	.st1{clip-path:url(#SVGID_2_);}
	.st2{fill:#FFFFFF;}
	.st3{clip-path:url(#SVGID_4_);}
	.st4{clip-path:url(#SVGID_6_);}
	.st5{clip-path:url(#SVGID_8_);}
	.st6{clip-path:url(#SVGID_10_);}
	.st7{fill:#939392;}
	.st8{clip-path:url(#SVGID_12_);}
	.st9{clip-path:url(#SVGID_14_);}
	.st10{fill:#EC2327;}
	.st11{clip-path:url(#SVGID_16_);}
	.st12{fill:#F79F1E;}
	.st13{clip-path:url(#SVGID_18_);}
	.st14{fill:#1BAE5C;}
	.st15{clip-path:url(#SVGID_20_);}
	.st16{fill:#8250A0;}
	.st17{clip-path:url(#SVGID_22_);}
	.st18{fill:#2C7FC2;}
	.st19{fill:#072F54;}
	.st20{fill:#FBC108;}
</style>
<path id="path4354_2_" class="st19" d="M90.8,46.8H85c0,0,0,0-0.1,0l-5-6.1l-5,6.1c0,0,0,0-0.1,0h-4.7c0,0-0.1,0-0.1,0
	c0,0,0-0.1,0-0.1l7.4-9.1l-7.3-9c0,0,0-0.1,0-0.1c0,0,0,0,0.1,0H76c0,0,0,0,0.1,0l4.4,5.5l4.5-5.5c0,0,0,0,0.1,0h4.8
	c0,0,0.1,0,0.1,0c0,0,0,0.1,0,0.1l-6.9,8.3l8,9.8C90.9,46.7,90.9,46.7,90.8,46.8C90.9,46.8,90.8,46.8,90.8,46.8"/>
<path id="path4358_2_" class="st19" d="M122.4,31.6c-2.6,0-4.3,1.6-4.9,4.3h8.8v-0.2C126.4,33.6,124.8,31.6,122.4,31.6 M130.9,38.7
	C130.9,38.8,130.9,38.8,130.9,38.7l-13.4,0c0.3,3.1,2.3,4.9,5.6,4.9c2,0,4.2-0.7,7.2-2.3c0.1,0,0.1,0,0.1,0.1v4.1c0,0,0,0.1,0,0.1
	c-2.8,1.2-5.6,2-7.9,2c-5.8,0-9.9-4.2-9.9-10s4.2-10,9.9-10c5.3,0,8.6,3.5,8.6,8.4C131.1,36.9,130.9,38.7,130.9,38.7"/>
<path id="path4362_2_" class="st19" d="M158.1,24.6c-1.6,0-3-1.3-3-2.9c0-1.7,1.3-3,3-3s3,1.4,3,3C161,23.3,159.7,24.6,158.1,24.6
	 M155.7,46.8C155.6,46.8,155.6,46.8,155.7,46.8l-0.1-18.3c0,0,0-0.1,0.1-0.1h4.8c0,0,0.1,0,0.1,0.1v18.2c0,0.1,0,0.1-0.1,0.1H155.7
	L155.7,46.8z"/>
<path id="path4366_2_" class="st19" d="M99.7,44c-0.9,0-1.8-0.1-2.8-0.4l0-11.7c1.2-0.4,2.2-0.6,3.3-0.6c3.3,0,5.6,2.5,5.6,6.1
	C105.7,41.5,103.4,44,99.7,44 M101,27.7c-1.4,0-2.7,0.2-4.2,0.7H92c0,0-0.1,0-0.1,0.1v29.9c1.4-0.2,3.2-0.7,5-1.9v-9.1
	c1.2,0.2,2.2,0.3,3.1,0.3c6.6,0,10.8-3.9,10.8-10C110.8,31.7,106.8,27.7,101,27.7"/>
<path id="path4370_2_" class="st19" d="M146.9,42.5c-1.5,0.8-2.8,1.2-4.1,1.2c-3,0-4.8-2.1-4.8-5.6c0-4.1,2.3-6.7,5.8-6.7
	c1,0,1.9,0.2,3.1,0.8V42.5z M146.9,18.8v9.5c-1.4-0.4-2.6-0.6-3.9-0.6c-5.7,0-10,4.3-10,10c0,5.7,3.8,9.8,9.1,9.8
	c1.8,0,3.5-0.5,5.5-1.5v1.6c1.3-0.3,2.8-0.8,4.3-1.9V16.8C150.4,17,148.6,17.5,146.9,18.8"/>
<path id="path4374_2_" class="st19" d="M177.3,42.5c-1.5,0.8-2.7,1.2-3.8,1.2c-3.2,0-5.1-2.1-5.1-5.6c0-4,2.3-6.7,5.6-6.7
	c0.9,0,2,0.4,3.3,1.1L177.3,42.5L177.3,42.5z M182.2,28.2c0-0.1-0.1-0.2-0.2-0.2h-3.9c-0.1,0-0.2,0.1-0.2,0.2v0.7h-0.1
	c-1.8-0.8-3.3-1.1-4.8-1.1c-5.4,0-9.6,4.5-9.6,10.2c0,5.8,3.8,9.7,9.4,9.7c1.5,0,3.4-0.1,5.3-2.2v2.3c1.3-0.3,2.8-0.8,4.2-1.9
	L182.2,28.2L182.2,28.2z"/>
<path id="path4378_2_" class="st19" d="M56.7,42.2h12.1c-0.2,1.4-0.6,2.9-1.7,4.6H54.6c-1.5,0-2.8-1.2-3-2.7c0,0,0,0,0-0.1V20.1
	c0,0,0,0,0-0.1c0.1-1.5,1.4-2.7,3-2.7h14.3c-0.2,1.4-0.6,3-1.7,4.6H56.7v6.5h10.3c0,0,0.1,0,0.1,0.1V33c0,0,0,0.1-0.1,0.1H56.7
	L56.7,42.2L56.7,42.2z"/>
<path id="path4382_2_" class="st19" d="M41.6,47.2c-1.2,0-1.9-0.9-1.9-2.1c0-1.2,0.9-2.1,1.9-2.1c1.1,0,1.9,0.9,1.9,2.1
	C43.5,46.3,42.6,47.2,41.6,47.2 M41.6,42.8c-1.2,0-2.3,0.9-2.3,2.3c0,1.3,0.9,2.3,2.3,2.3c1.2,0,2.3-0.9,2.3-2.3
	C43.8,43.7,42.8,42.8,41.6,42.8"/>
<path id="path4386_2_" class="st19" d="M41,44.9V44h0.6c0.3,0,0.6,0,0.6,0.4c0,0.4-0.3,0.4-0.7,0.4C41.6,44.9,41,44.9,41,44.9z
	 M42.6,44.5c0-0.6-0.3-0.8-1-0.8h-1v2.7h0.4v-1.2h0.4l0.7,1.2h0.5l-0.8-1.2C42.4,45.2,42.6,45,42.6,44.5"/>
<path id="path4390_2_" class="st19" d="M186.2,31.4c-1.2,0-1.9-0.9-1.9-2.1c0-1.2,0.9-2.1,1.9-2.1c1.1,0,1.9,0.9,1.9,2.1
	C188.2,30.6,187.3,31.4,186.2,31.4 M186.2,27.1c-1.2,0-2.3,0.9-2.3,2.3c0,1.3,0.9,2.3,2.3,2.3c1.2,0,2.3-0.9,2.3-2.3
	C188.5,28,187.4,27.1,186.2,27.1"/>
<path id="path4394_2_" class="st19" d="M185.7,29.2v-0.8h0.6c0.3,0,0.6,0,0.6,0.4c0,0.4-0.3,0.4-0.7,0.4H185.7z M187.3,28.8
	c0-0.6-0.3-0.8-1-0.8h-1v2.7h0.4v-1.2h0.4l0.7,1.2h0.5l-0.8-1.2C187,29.5,187.3,29.3,187.3,28.8"/>
<path id="path4398_2_" class="st19" d="M25.9,21.9l-0.9-2.5l-7.5-10l1.3-0.3l12.9,11.1l7.6-2.2c0.9-0.2,1.9-0.3,2.7-0.3
	c-2.4-5.1-6.7-9.3-12.5-11.4C18.2,2.4,5.7,8.3,1.7,19.7c-1.3,3.5-1.5,7.1-1,10.6l18.1-6.3L25.9,21.9z"/>
<path id="path4402_2_" class="st19" d="M42.8,19.7c-0.7,0.4-1.6,1-2.6,1.3l-7.6,2.2l-5.1,16.2l-1.3,0.4l1.1-12.4l-0.6-2.6l-7.1,2
	L0.9,31.3c1.5,7.2,6.6,13.5,14.1,16.2c11.4,4.1,23.8-1.9,27.9-13.2C44.5,29.4,44.4,24.3,42.8,19.7"/>
<path id="path4406_2_" class="st20" d="M26.7,24.9l0.6,2.6l-1.1,12.4l1.3-0.4l5.1-16.2l7.6-2.2c1-0.3,1.9-0.9,2.6-1.3
	c-0.2-0.7-0.5-1.3-0.8-2c-0.8,0-1.8,0-2.7,0.3l-7.6,2.2L18.9,9.1l-1.3,0.3l7.5,10l0.9,2.5l-7.2,2.1L0.6,30.2
	c0.1,0.4,0.1,0.8,0.2,1.1l18.8-4.4L26.7,24.9L26.7,24.9z"/>
</svg>
