<svg id="Layer_1" data-name="Layer 1" xmlns="http://www.w3.org/2000/svg" viewBox="0 0 171.33 26"><defs><style>.cls-1{fill:#d3b27c;}.cls-2{fill:#fff;}</style></defs><title>Bucket List Travels Logo 01</title><path class="cls-1" d="M15.23,5.11a6.34,6.34,0,0,0-2.3-2.3,7.15,7.15,0,0,0-4.7-.9,7.28,7.28,0,0,0-4.9,3.2,6.29,6.29,0,0,0-1,3.5,6.64,6.64,0,0,0,1,3.6c.3.5.5,1,.8,1.5.9,1.4,1.9,2.7,2.7,4.2a21.58,21.58,0,0,1,2.5,6.6c.7-3.9,2.5-6.7,4.3-9.4.6-1,1.2-1.9,1.7-2.9.2-.5.5-1,.7-1.6a6.45,6.45,0,0,0,.3-2A7.24,7.24,0,0,0,15.23,5.11Zm-5.9,5.6a2.5,2.5,0,1,1,2.5-2.5A2.5,2.5,0,0,1,9.33,10.71Z"/><path class="cls-2" d="M23.13,5.41h1.1v5.3a4.17,4.17,0,0,1,3.4-1.8c2.6,0,4.4,2,4.4,5.1s-1.8,5.1-4.4,5.1a4.15,4.15,0,0,1-3.4-1.8v1.6h-1.1Zm4.2,12.8c2.2,0,3.4-1.8,3.4-4.2s-1.2-4.2-3.4-4.2a3.79,3.79,0,0,0-3.2,1.8v4.8A3.92,3.92,0,0,0,27.33,18.21Z"/><path class="cls-2" d="M41.23,17.51a4.91,4.91,0,0,1-3.5,1.7c-2,0-3.1-.9-3.1-3.1V9.21h1.1v6.6c0,1.9,1,2.4,2.4,2.4a4.17,4.17,0,0,0,3.2-1.6V9.21h1.1V19h-1.1v-1.5Z"/><path class="cls-2" d="M49.73,8.91a4.13,4.13,0,0,1,3.5,1.7l-.7.6a3.08,3.08,0,0,0-2.7-1.4c-2.3,0-3.7,1.8-3.7,4.2s1.4,4.2,3.7,4.2a3.19,3.19,0,0,0,2.7-1.4l.7.6a4.13,4.13,0,0,1-3.5,1.7,4.81,4.81,0,0,1-4.8-5.1A4.81,4.81,0,0,1,49.73,8.91Z"/><path class="cls-2" d="M58.43,14.31,56.63,16v2.9h-1.1V5.41h1.1v9.3l5.7-5.6h1.4l-4.5,4.4,4.5,5.4h-1.4Z"/><path class="cls-2" d="M69.43,8.91c3,0,4.6,2.4,4.6,5.2v.3h-8.2a3.82,3.82,0,0,0,3.8,3.9,4.16,4.16,0,0,0,3.2-1.4l.5.7a5.12,5.12,0,0,1-3.8,1.6,4.78,4.78,0,0,1-4.9-5.1C64.73,11.21,66.73,8.91,69.43,8.91Zm-3.5,4.6H73a3.53,3.53,0,0,0-3.6-3.7A3.57,3.57,0,0,0,65.93,13.51Z"/><path class="cls-2" d="M76.93,17v-6.9h-1.6v-1h1.6V6.41H78v2.7h2v1H78v6.8c0,.8.3,1.3,1,1.3a1.29,1.29,0,0,0,1.1-.5l.4.8a2.06,2.06,0,0,1-1.7.6C77.63,19.21,76.93,18.41,76.93,17Z"/><path class="cls-2" d="M87.53,5.41h1.1v13.5h-1.1Z"/><path class="cls-2" d="M91.63,6.71a.8.8,0,1,1,1.6,0,.8.8,0,1,1-1.6,0Zm.3,2.5H93V19h-1.1Z"/><path class="cls-2" d="M96,16.81a4,4,0,0,0,3.2,1.4c1.6,0,2.6-.8,2.6-1.9,0-1.3-1.3-1.6-2.7-2-1.6-.4-3.4-.8-3.4-2.7,0-1.5,1.3-2.7,3.5-2.7a4.14,4.14,0,0,1,3.5,1.5l-.6.7a3.49,3.49,0,0,0-2.9-1.3c-1.5,0-2.4.7-2.4,1.8s1.3,1.4,2.6,1.8c1.7.4,3.6.9,3.6,3,0,1.6-1.2,2.9-3.7,2.9a5,5,0,0,1-3.8-1.5Z"/><path class="cls-2" d="M105.73,17v-6.9h-1.6v-1h1.6V6.41h1.1v2.7h2v1h-2v6.8c0,.8.3,1.3,1,1.3a1.29,1.29,0,0,0,1.1-.5l.4.8a2.06,2.06,0,0,1-1.7.6C106.33,19.21,105.73,18.41,105.73,17Z"/><path class="cls-1" d="M116.23,19.91a37.44,37.44,0,0,1-.4-6.1c0-2.1.1-3.9.2-5.5a11.83,11.83,0,0,0-2.7,1c-.4.4-1.3-.1-.7-.5a12,12,0,0,1,3.5-1.1c.3-3.5.9-6.3,1.4-6.3h0c.2,0,1,.6,1,1v.1a14.21,14.21,0,0,0-1.2,5,24.7,24.7,0,0,1,4.4-.4h.8c.1,0,.1.1.1.2,0,.3-.1.5-.2.5h0a21.61,21.61,0,0,0-5.1.3c-.1,1-.2,3.1-.2,5.5a48.56,48.56,0,0,0,.3,5.6,7.26,7.26,0,0,0,.8,2.5v.1a.1.1,0,0,1-.1.1C118.13,21.81,116.43,21.61,116.23,19.91Z"/><path class="cls-1" d="M120.53,19.31a7.45,7.45,0,0,1-.2-1.8,12.53,12.53,0,0,1,.4-3.2c0-.1.2-.2.4-.2s.7.1.7.3h0a12.31,12.31,0,0,0-.4,3.1c0,.5,0,.8.1.8.1-.9.9-5.8,2.7-5.8a1.27,1.27,0,0,1,.6.1c.8.4,1.7,2.3,2.5,2.7.1,0,.2.1.3.1.5,0,1.1-.4,2-1.1a.37.37,0,0,1,.3-.1.35.35,0,0,1,.2.1.37.37,0,0,1-.1.3,5.08,5.08,0,0,1-3,1.6c-.2,0-.3,0-.4-.1-.8-.3-1.2-1.4-2.2-2.3a.55.55,0,0,0-.5-.2c-.8,0-1.4,2.1-1.8,3.8-.2,1-.2,1.8-.3,2a.82.82,0,0,1-.6.4A.75.75,0,0,1,120.53,19.31Z"/><path class="cls-1" d="M135.63,18.71c-.7-.5-.8-1.7-.8-2.8a6.15,6.15,0,0,1,.1-1.4v-.4c0-.2,0-.4-.1-.4s-.2.1-.3.2c-.6.8-1.5,2.3-2.8,2.7a1.09,1.09,0,0,1-.5.1c-.7,0-1-.5-1-1.2v-.3a2.54,2.54,0,0,1,1.1-1.7,2.73,2.73,0,0,1,1.4-.4,2.35,2.35,0,0,1,1.6.5,1.21,1.21,0,0,1,.9-.6c.5,0,.9.4.9,1.1v.1c0,.4-.1,1.1-.1,1.9a2.29,2.29,0,0,0,.5,1.8.76.76,0,0,0,.5.2c1.4,0,3.5-3.3,4-3.9.1-.1.1-.1.2-.1a.22.22,0,0,1,.2.2.1.1,0,0,1-.1.1c-.7.8-3,4.5-4.9,4.5A.88.88,0,0,1,135.63,18.71Zm-3.7-2.7c1.1-.3,1.5-1.2,2.1-2a2.2,2.2,0,0,0-.8-.1,2.06,2.06,0,0,0-2,1.7c0,.3.1.4.4.4Z"/><path class="cls-1" d="M142.53,18.51a10.36,10.36,0,0,1-1.1-3.8v-.3c0-.2.4-.3.7-.3s.6.1.6.2h0v.5a6.89,6.89,0,0,0,.7,2.9h0c0-.3,1.7-4.6,3.6-6.2h.1a1.14,1.14,0,0,1,.8.7.1.1,0,0,1-.1.1c-1.9,1.2-3.5,4.5-4.1,6.5-.1.3-.2.4-.4.4A1,1,0,0,1,142.53,18.51Z"/><path class="cls-1" d="M151.93,18.21c-1.6-.1-2.4-1.6-2.4-3.1s.8-3.2,2.4-3.4h.2a1,1,0,0,1,1.1,1,1.61,1.61,0,0,1-.3.9,5,5,0,0,1-2.3,1.6v.2c0,1.5.8,2.1,1.9,2.1a4.71,4.71,0,0,0,1.6-.4,11.77,11.77,0,0,0,3.1-2.8c.1-.1.1-.1.2-.1a.22.22,0,0,1,.2.2c0,.1,0,.1-.1.2a7.3,7.3,0,0,1-.9,1c-1.9,2.1-3.4,2.7-4.6,2.7Zm.6-5.3c0-.1,0-.2-.1-.2h-.2c-.4,0-1.2.4-1.5,1.9C151.93,14.11,152.53,13.31,152.53,12.91Z"/><path class="cls-1" d="M158.53,20.41a41.83,41.83,0,0,1-.6-7.4c0-5.4.8-10.7,2.4-10.7h.2c.8.3,1.2,1.5,1.2,3.1a17.38,17.38,0,0,1-2.6,8.7v1c0,2,.2,6,1.6,6.9l.1.1a.1.1,0,0,1-.1.1A2.17,2.17,0,0,1,158.53,20.41Zm2.5-15v-.2c0-.8-.2-1.3-.5-1.3s-.4.2-.5.5c-.7,1.5-1,6.8-1,8.9A15.61,15.61,0,0,0,161,5.41Z"/><path class="cls-1" d="M163.23,21.71a2.54,2.54,0,0,1,.2-.7,8.33,8.33,0,0,1,2-2.2c-1-1.3-2.6-2.2-2.6-4v-.1a4,4,0,0,1,3.1-3.2c.5,0,.9.3,1,1v.2c0,.2-.1.4-.2.4a.1.1,0,0,1-.1-.1c-.1-.2-.3-.2-.5-.2a2.57,2.57,0,0,0-2.2,2.4v.4c.3,1.4,1.1,1.8,1.9,2.7a19.76,19.76,0,0,0,3.7-3.9.31.31,0,0,1,.2-.1.22.22,0,0,1,.2.2.31.31,0,0,1-.1.2,24,24,0,0,1-3.7,4,3,3,0,0,1,.5,1.5,2.47,2.47,0,0,1-2,2.4h-.4C163.63,22.51,163.23,22.21,163.23,21.71Zm2.6-1.9a1.85,1.85,0,0,0-.2-.7c-1.2,1.1-1.6,1.8-1.6,2.1s.1.2.3.2A1.8,1.8,0,0,0,165.83,19.81Z"/></svg>