<?xml version="1.0" encoding="utf-8"?>
<!-- Generator: Adobe Illustrator 22.1.0, SVG Export Plug-In . SVG Version: 6.00 Build 0)  -->
<svg version="1.1" id="Layer_1" xmlns="http://www.w3.org/2000/svg" xmlns:xlink="http://www.w3.org/1999/xlink" x="0px" y="0px"
	 viewBox="0 0 188.5 61.8" style="enable-background:new 0 0 188.5 61.8;" xml:space="preserve">
<style type="text/css">
	.st0{fill:#186B6D;}
	.st1{clip-path:url(#SVGID_2_);}
	.st2{fill:#FFFFFF;}
	.st3{clip-path:url(#SVGID_4_);}
	.st4{clip-path:url(#SVGID_6_);}
	.st5{clip-path:url(#SVGID_8_);}
	.st6{clip-path:url(#SVGID_10_);}
	.st7{fill:#939392;}
	.st8{clip-path:url(#SVGID_12_);}
	.st9{clip-path:url(#SVGID_14_);}
	.st10{fill:#EC2327;}
	.st11{clip-path:url(#SVGID_16_);}
	.st12{fill:#F79F1E;}
	.st13{clip-path:url(#SVGID_18_);}
	.st14{fill:#1BAE5C;}
	.st15{clip-path:url(#SVGID_20_);}
	.st16{fill:#8250A0;}
	.st17{clip-path:url(#SVGID_22_);}
	.st18{fill:#2C7FC2;}
	.st19{fill:#072F54;}
	.st20{fill:#FBC108;}
</style>
<path class="st0" d="M114.8,50c-3.3,0-4.9-2-4.9-5.5V19.6h9v-3.1h-9V7.2H99l-0.5,9.3h-4.9v3.1h4.9v24.5c0,6.3,3.6,10.4,11,10.4
	c5.5,0,8.8-2.3,10.1-5.3l-0.5-0.6C117.8,49.6,116.3,50,114.8,50z M41.1,16.5h11.4v37.2H41.1V16.5z M185.3,53.1
	c1.5,0,2.6-1.2,2.6-2.6c0-1.5-1.2-2.6-2.6-2.6c-1.5,0-2.6,1.2-2.6,2.6C182.7,52,183.9,53.1,185.3,53.1z M185.3,53.7
	c1.7,0,3.2-1.4,3.2-3.2c0-1.7-1.4-3.2-3.2-3.2c-1.7,0-3.2,1.4-3.2,3.2C182.1,52.3,183.6,53.7,185.3,53.7z M185.8,50.5
	c0.2,0,0.4-0.1,0.5-0.3c0.1-0.1,0.2-0.3,0.2-0.5c0-0.6-0.5-0.8-1.2-0.8h-0.9V52h0.5v-1.4h0.4l0.6,1c0.2,0.3,0.2,0.3,0.5,0.3h0.3v0
	L185.8,50.5z M185.3,50.5h-0.3v-1.4h0.3c0.5,0,0.7,0.2,0.7,0.7C186,50.3,185.8,50.5,185.3,50.5z M118.8,35.3
	c0-11.1,7.7-19.6,19.8-19.6c12,0,19.6,8.3,19.6,19.3c0,11.1-7.2,19.6-19.8,19.6C126,54.6,118.8,46.3,118.8,35.3z M131.6,35
	c0,11.9,0.8,16.9,7,16.9c6.1,0,6.9-5.1,6.8-16.7c0-11.9-0.8-16.9-6.9-16.9C132.4,18.2,131.6,23.3,131.6,35z M174.1,22.9l-0.3-6.4
	h-11v37.2h11.4V23.9c0.7-0.2,1.4-0.3,2.1-0.3c2,0,4.4,0.8,11.5,4.2l0.7-0.3V17.1c-1.3-1-2.9-1.5-4.5-1.4
	C180.8,15.7,177.1,17.7,174.1,22.9z M80.1,53.7l-1.3-4.5c-1.9,2.9-5.6,5.3-10.6,5.3c-6.4,0-10.5-4-10.5-10.1
	c0-8.8,7.9-10.8,20.8-13.5v-7.8c0-3.4-1.3-5-4.4-5c-2.7,0-5.3,1.3-14,7.2l-0.7-0.3l0.5-6.5c4.6-1.5,11.3-3,16.7-3
	c8.1,0,13.1,3.1,13.1,9.4v28.6H80.1z M78.6,33.6c-7.6,1.6-9.5,3-9.5,8.8c0,5.3,1.4,7.2,4.7,7.2c1.8,0.1,3.5-0.5,4.9-1.6V33.6z
	 M29.5,29.7c3.8,0,6.9-3.1,6.9-7c0-3.9-3.1-7-6.9-7s-6.9,3.1-6.9,7C22.5,26.6,25.6,29.7,29.5,29.7z M25.5,45.5l-3.6,8.2h-4.9
	L0.4,16.5h12.2L25.5,45.5z"/>
</svg>
